<svg xmlns="http://www.w3.org/2000/svg" xmlns:xlink="http://www.w3.org/1999/xlink" width="500" zoomAndPan="magnify" viewBox="0 0 375 374.999991" height="500" preserveAspectRatio="xMidYMid meet" version="1.0"><defs><g/><clipPath id="33192fa6c1"><path d="M 69.121094 144.179688 L 76.773438 144.179688 L 76.773438 227.792969 L 69.121094 227.792969 Z M 69.121094 144.179688 " clip-rule="nonzero"/></clipPath><clipPath id="287ce0f028"><path d="M 69.121094 144.179688 L 119.464844 144.179688 L 119.464844 151.691406 L 69.121094 151.691406 Z M 69.121094 144.179688 " clip-rule="nonzero"/></clipPath><clipPath id="a7c598112c"><path d="M 88.679688 200.878906 L 96.328125 200.878906 L 96.328125 227.789062 L 88.679688 227.789062 Z M 88.679688 200.878906 " clip-rule="nonzero"/></clipPath><clipPath id="e2b10c5dbc"><path d="M 69.125 220.132812 L 96.332031 220.132812 L 96.332031 227.792969 L 69.125 227.792969 Z M 69.125 220.132812 " clip-rule="nonzero"/></clipPath><clipPath id="2c09255200"><path d="M 88.679688 200.878906 L 132.984375 200.878906 L 132.984375 208.539062 L 88.679688 208.539062 Z M 88.679688 200.878906 " clip-rule="nonzero"/></clipPath><clipPath id="4c6846dd39"><path d="M 125.332031 183.398438 L 132.984375 183.398438 L 132.984375 208.535156 L 125.332031 208.535156 Z M 125.332031 183.398438 " clip-rule="nonzero"/></clipPath><clipPath id="7828dc8675"><path d="M 88.703125 183.398438 L 133.007812 183.398438 L 133.007812 191.058594 L 88.703125 191.058594 Z M 88.703125 183.398438 " clip-rule="nonzero"/></clipPath><clipPath id="7602562df0"><path d="M 88.703125 163.710938 L 132.988281 163.710938 L 132.988281 171.296875 L 88.703125 171.296875 Z M 88.703125 163.710938 " clip-rule="nonzero"/></clipPath><clipPath id="a87846ca96"><path d="M 88.703125 163.710938 L 96.355469 163.710938 L 96.355469 191.054688 L 88.703125 191.054688 Z M 88.703125 163.710938 " clip-rule="nonzero"/></clipPath><clipPath id="b578cf3705"><path d="M 125.335938 144.175781 L 133.007812 144.175781 L 133.007812 171.296875 L 125.335938 171.296875 Z M 125.335938 144.175781 " clip-rule="nonzero"/></clipPath><clipPath id="5aebca0fcc"><path d="M 125.335938 144.179688 L 152.589844 144.179688 L 152.589844 151.761719 L 125.335938 151.761719 Z M 125.335938 144.179688 " clip-rule="nonzero"/></clipPath><clipPath id="10c3244662"><path d="M 145.007812 145.425781 L 152.585938 145.425781 L 152.585938 227.792969 L 145.007812 227.792969 Z M 145.007812 145.425781 " clip-rule="nonzero"/></clipPath><clipPath id="04c7818b7a"><path d="M 101.726562 220.132812 L 146.035156 220.132812 L 146.035156 227.792969 L 101.726562 227.792969 Z M 101.726562 220.132812 " clip-rule="nonzero"/></clipPath></defs><rect x="-37.5" width="450" fill="#ffffff" y="-37.499999" height="449.999989" fill-opacity="1"/><rect x="-37.5" width="450" fill="#20242d" y="-37.499999" height="449.999989" fill-opacity="1"/><g clip-path="url(#33192fa6c1)"><path fill="#dd32f3" d="M 76.773438 144.179688 L 76.773438 227.777344 L 69.121094 227.777344 L 69.121094 144.179688 Z M 76.773438 144.179688 " fill-opacity="1" fill-rule="nonzero"/></g><g clip-path="url(#287ce0f028)"><path fill="#dd32f3" d="M 119.464844 144.179688 L 119.464844 151.691406 L 69.132812 151.691406 L 69.132812 144.179688 Z M 119.464844 144.179688 " fill-opacity="1" fill-rule="nonzero"/></g><g clip-path="url(#a7c598112c)"><path fill="#dd32f3" d="M 96.328125 200.878906 L 96.328125 227.777344 L 88.679688 227.777344 L 88.679688 200.878906 Z M 96.328125 200.878906 " fill-opacity="1" fill-rule="nonzero"/></g><g clip-path="url(#e2b10c5dbc)"><path fill="#dd32f3" d="M 96.332031 220.132812 L 96.332031 227.792969 L 69.136719 227.792969 L 69.136719 220.132812 Z M 96.332031 220.132812 " fill-opacity="1" fill-rule="nonzero"/></g><g clip-path="url(#2c09255200)"><path fill="#dd32f3" d="M 132.984375 200.878906 L 132.984375 208.539062 L 88.675781 208.539062 L 88.675781 200.878906 Z M 132.984375 200.878906 " fill-opacity="1" fill-rule="nonzero"/></g><g clip-path="url(#4c6846dd39)"><path fill="#dd32f3" d="M 132.984375 183.398438 L 132.984375 208.53125 L 125.332031 208.53125 L 125.332031 183.398438 Z M 132.984375 183.398438 " fill-opacity="1" fill-rule="nonzero"/></g><g clip-path="url(#7828dc8675)"><path fill="#dd32f3" d="M 133.007812 183.398438 L 133.007812 191.058594 L 88.699219 191.058594 L 88.699219 183.398438 Z M 133.007812 183.398438 " fill-opacity="1" fill-rule="nonzero"/></g><g clip-path="url(#7602562df0)"><path fill="#ffffff" d="M 132.988281 163.710938 L 132.988281 171.296875 L 88.695312 171.296875 L 88.695312 163.710938 Z M 132.988281 163.710938 " fill-opacity="1" fill-rule="nonzero"/></g><g clip-path="url(#a87846ca96)"><path fill="#ffffff" d="M 96.355469 163.710938 L 96.355469 191.058594 L 88.703125 191.058594 L 88.703125 163.710938 Z M 96.355469 163.710938 " fill-opacity="1" fill-rule="nonzero"/></g><g clip-path="url(#b578cf3705)"><path fill="#ffffff" d="M 133.007812 144.175781 L 133.007812 171.308594 L 125.335938 171.308594 L 125.335938 144.175781 Z M 133.007812 144.175781 " fill-opacity="1" fill-rule="nonzero"/></g><g clip-path="url(#5aebca0fcc)"><path fill="#ffffff" d="M 152.589844 144.179688 L 152.589844 151.761719 L 125.332031 151.761719 L 125.332031 144.179688 Z M 152.589844 144.179688 " fill-opacity="1" fill-rule="nonzero"/></g><g clip-path="url(#10c3244662)"><path fill="#ffffff" d="M 152.585938 145.425781 L 152.585938 227.792969 L 145.007812 227.792969 L 145.007812 145.425781 Z M 152.585938 145.425781 " fill-opacity="1" fill-rule="nonzero"/></g><g clip-path="url(#04c7818b7a)"><path fill="#ffffff" d="M 146.035156 220.132812 L 146.035156 227.792969 L 101.726562 227.792969 L 101.726562 220.132812 Z M 146.035156 220.132812 " fill-opacity="1" fill-rule="nonzero"/></g><g fill="#dd32f3" fill-opacity="1"><g transform="translate(162.839687, 177.749988)"><g><path d="M 2.296875 0 L 2.296875 -26.359375 L 7.859375 -26.359375 L 7.859375 -15.484375 L 19.1875 -15.484375 L 19.1875 -26.359375 L 24.734375 -26.359375 L 24.734375 0 L 19.1875 0 L 19.1875 -10.890625 L 7.859375 -10.890625 L 7.859375 0 Z M 2.296875 0 "/></g></g></g><g fill="#dd32f3" fill-opacity="1"><g transform="translate(188.976397, 177.749988)"><g><path d="M 11.203125 0.390625 C 9.171875 0.390625 7.421875 -0.0195312 5.953125 -0.84375 C 4.492188 -1.675781 3.367188 -2.851562 2.578125 -4.375 C 1.785156 -5.90625 1.390625 -7.710938 1.390625 -9.796875 C 1.390625 -11.828125 1.785156 -13.609375 2.578125 -15.140625 C 3.367188 -16.679688 4.484375 -17.878906 5.921875 -18.734375 C 7.359375 -19.597656 9.046875 -20.03125 10.984375 -20.03125 C 12.722656 -20.03125 14.289062 -19.660156 15.6875 -18.921875 C 17.09375 -18.179688 18.207031 -17.066406 19.03125 -15.578125 C 19.863281 -14.085938 20.28125 -12.222656 20.28125 -9.984375 L 20.28125 -8.484375 L 6.8125 -8.484375 L 6.8125 -8.46875 C 6.8125 -6.988281 7.210938 -5.820312 8.015625 -4.96875 C 8.828125 -4.125 9.921875 -3.703125 11.296875 -3.703125 C 12.210938 -3.703125 13.003906 -3.894531 13.671875 -4.28125 C 14.335938 -4.664062 14.8125 -5.238281 15.09375 -6 L 20.15625 -5.671875 C 19.769531 -3.828125 18.789062 -2.351562 17.21875 -1.25 C 15.65625 -0.15625 13.648438 0.390625 11.203125 0.390625 Z M 6.8125 -11.875 L 15.109375 -11.875 C 15.097656 -13.050781 14.71875 -14.019531 13.96875 -14.78125 C 13.226562 -15.550781 12.265625 -15.9375 11.078125 -15.9375 C 9.859375 -15.9375 8.859375 -15.539062 8.078125 -14.75 C 7.296875 -13.957031 6.875 -13 6.8125 -11.875 Z M 6.8125 -11.875 "/></g></g></g><g fill="#dd32f3" fill-opacity="1"><g transform="translate(209.732794, 177.749988)"><g><path d="M 5.375 7.703125 C 4.59375 7.703125 3.925781 7.632812 3.375 7.5 C 2.820312 7.363281 2.390625 7.226562 2.078125 7.09375 L 3.328125 2.84375 C 4.296875 3.132812 5.109375 3.210938 5.765625 3.078125 C 6.429688 2.941406 6.957031 2.421875 7.34375 1.515625 L 7.703125 0.5625 L 0.625 -19.765625 L 6.390625 -19.765625 L 10.484375 -5.25 L 10.6875 -5.25 L 14.8125 -19.765625 L 20.625 -19.765625 L 12.90625 2.265625 C 12.34375 3.847656 11.445312 5.148438 10.21875 6.171875 C 9 7.191406 7.382812 7.703125 5.375 7.703125 Z M 5.375 7.703125 "/></g></g></g><g fill="#ffffff" fill-opacity="1"><g transform="translate(162.839687, 221.249985)"><g><path d="M 2.296875 0 L 2.296875 -26.359375 L 19.75 -26.359375 L 19.75 -21.765625 L 7.859375 -21.765625 L 7.859375 -15.484375 L 18.59375 -15.484375 L 18.59375 -10.890625 L 7.859375 -10.890625 L 7.859375 0 Z M 2.296875 0 "/></g></g></g><g fill="#ffffff" fill-opacity="1"><g transform="translate(183.132714, 221.249985)"><g><path d="M 7.828125 0.375 C 5.941406 0.375 4.375 -0.117188 3.125 -1.109375 C 1.882812 -2.097656 1.265625 -3.566406 1.265625 -5.515625 C 1.265625 -6.992188 1.609375 -8.15625 2.296875 -9 C 2.992188 -9.84375 3.90625 -10.457031 5.03125 -10.84375 C 6.164062 -11.238281 7.382812 -11.492188 8.6875 -11.609375 C 10.40625 -11.785156 11.632812 -11.96875 12.375 -12.15625 C 13.113281 -12.34375 13.484375 -12.753906 13.484375 -13.390625 L 13.484375 -13.46875 C 13.484375 -14.28125 13.226562 -14.910156 12.71875 -15.359375 C 12.207031 -15.804688 11.484375 -16.03125 10.546875 -16.03125 C 9.554688 -16.03125 8.769531 -15.8125 8.1875 -15.375 C 7.601562 -14.945312 7.21875 -14.40625 7.03125 -13.75 L 1.953125 -14.15625 C 2.328125 -15.957031 3.265625 -17.382812 4.765625 -18.4375 C 6.265625 -19.5 8.195312 -20.03125 10.5625 -20.03125 C 12.03125 -20.03125 13.40625 -19.796875 14.6875 -19.328125 C 15.96875 -18.867188 17 -18.144531 17.78125 -17.15625 C 18.570312 -16.175781 18.96875 -14.90625 18.96875 -13.34375 L 18.96875 0 L 13.765625 0 L 13.765625 -2.734375 L 13.609375 -2.734375 C 13.128906 -1.816406 12.410156 -1.066406 11.453125 -0.484375 C 10.492188 0.0859375 9.285156 0.375 7.828125 0.375 Z M 9.390625 -3.40625 C 10.597656 -3.40625 11.585938 -3.753906 12.359375 -4.453125 C 13.128906 -5.160156 13.515625 -6.03125 13.515625 -7.0625 L 13.515625 -9.171875 C 13.296875 -9.023438 12.960938 -8.894531 12.515625 -8.78125 C 12.066406 -8.664062 11.585938 -8.566406 11.078125 -8.484375 C 10.566406 -8.410156 10.109375 -8.34375 9.703125 -8.28125 C 8.742188 -8.144531 7.96875 -7.875 7.375 -7.46875 C 6.789062 -7.0625 6.5 -6.472656 6.5 -5.703125 C 6.5 -4.941406 6.769531 -4.367188 7.3125 -3.984375 C 7.863281 -3.597656 8.554688 -3.40625 9.390625 -3.40625 Z M 9.390625 -3.40625 "/></g></g></g><g fill="#ffffff" fill-opacity="1"><g transform="translate(203.258405, 221.249985)"><g><path d="M 12.703125 -19.765625 L 12.703125 -15.65625 L 8.984375 -15.65625 L 8.984375 -6.078125 C 8.984375 -5.316406 9.15625 -4.800781 9.5 -4.53125 C 9.84375 -4.269531 10.289062 -4.140625 10.84375 -4.140625 C 11.09375 -4.140625 11.347656 -4.160156 11.609375 -4.203125 C 11.867188 -4.253906 12.066406 -4.296875 12.203125 -4.328125 L 13.0625 -0.25 C 12.789062 -0.15625 12.40625 -0.0507812 11.90625 0.0625 C 11.40625 0.175781 10.800781 0.242188 10.09375 0.265625 C 8.101562 0.359375 6.503906 -0.0664062 5.296875 -1.015625 C 4.085938 -1.972656 3.488281 -3.421875 3.5 -5.359375 L 3.5 -15.65625 L 0.796875 -15.65625 L 0.796875 -19.765625 L 3.5 -19.765625 L 3.5 -24.515625 L 8.984375 -24.515625 L 8.984375 -19.765625 Z M 12.703125 -19.765625 "/></g></g></g><g fill="#ffffff" fill-opacity="1"><g transform="translate(216.433446, 221.249985)"><g><path d="M 7.671875 -11.4375 L 7.671875 0 L 2.1875 0 L 2.1875 -26.359375 L 7.515625 -26.359375 L 7.515625 -16.28125 L 7.75 -16.28125 C 8.207031 -17.445312 8.929688 -18.363281 9.921875 -19.03125 C 10.910156 -19.695312 12.15625 -20.03125 13.65625 -20.03125 C 15.71875 -20.03125 17.375 -19.367188 18.625 -18.046875 C 19.875 -16.722656 20.5 -14.90625 20.5 -12.59375 L 20.5 0 L 15.015625 0 L 15.015625 -11.609375 C 15.015625 -12.828125 14.703125 -13.773438 14.078125 -14.453125 C 13.460938 -15.128906 12.597656 -15.46875 11.484375 -15.46875 C 10.367188 -15.46875 9.457031 -15.113281 8.75 -14.40625 C 8.039062 -13.695312 7.679688 -12.707031 7.671875 -11.4375 Z M 7.671875 -11.4375 "/></g></g></g><g fill="#ffffff" fill-opacity="1"><g transform="translate(238.155213, 221.249985)"><g><path d="M 11.125 0.390625 C 9.125 0.390625 7.394531 -0.0351562 5.9375 -0.890625 C 4.488281 -1.742188 3.367188 -2.9375 2.578125 -4.46875 C 1.785156 -6 1.390625 -7.78125 1.390625 -9.8125 C 1.390625 -11.851562 1.785156 -13.640625 2.578125 -15.171875 C 3.367188 -16.703125 4.488281 -17.894531 5.9375 -18.75 C 7.394531 -19.601562 9.125 -20.03125 11.125 -20.03125 C 13.125 -20.03125 14.847656 -19.601562 16.296875 -18.75 C 17.753906 -17.894531 18.878906 -16.703125 19.671875 -15.171875 C 20.460938 -13.640625 20.859375 -11.851562 20.859375 -9.8125 C 20.859375 -7.78125 20.460938 -6 19.671875 -4.46875 C 18.878906 -2.9375 17.753906 -1.742188 16.296875 -0.890625 C 14.847656 -0.0351562 13.125 0.390625 11.125 0.390625 Z M 11.140625 -3.859375 C 12.503906 -3.859375 13.535156 -4.425781 14.234375 -5.5625 C 14.929688 -6.695312 15.28125 -8.125 15.28125 -9.84375 C 15.28125 -11.570312 14.929688 -13.003906 14.234375 -14.140625 C 13.535156 -15.273438 12.503906 -15.84375 11.140625 -15.84375 C 9.765625 -15.84375 8.722656 -15.273438 8.015625 -14.140625 C 7.316406 -13.003906 6.96875 -11.570312 6.96875 -9.84375 C 6.96875 -8.125 7.316406 -6.695312 8.015625 -5.5625 C 8.722656 -4.425781 9.765625 -3.859375 11.140625 -3.859375 Z M 11.140625 -3.859375 "/></g></g></g><g fill="#ffffff" fill-opacity="1"><g transform="translate(259.490827, 221.249985)"><g><path d="M 7.671875 -11.4375 L 7.671875 0 L 2.1875 0 L 2.1875 -19.765625 L 7.421875 -19.765625 L 7.421875 -16.28125 L 7.640625 -16.28125 C 8.085938 -17.4375 8.820312 -18.347656 9.84375 -19.015625 C 10.875 -19.691406 12.125 -20.03125 13.59375 -20.03125 C 15.65625 -20.03125 17.304688 -19.363281 18.546875 -18.03125 C 19.796875 -16.707031 20.421875 -14.894531 20.421875 -12.59375 L 20.421875 0 L 14.9375 0 L 14.9375 -11.609375 C 14.945312 -12.816406 14.632812 -13.757812 14 -14.4375 C 13.375 -15.125 12.515625 -15.46875 11.421875 -15.46875 C 10.304688 -15.46875 9.40625 -15.113281 8.71875 -14.40625 C 8.03125 -13.695312 7.679688 -12.707031 7.671875 -11.4375 Z M 7.671875 -11.4375 "/></g></g></g><g fill="#ffffff" fill-opacity="1"><g transform="translate(281.122493, 221.249985)"><g><path d="M 5.375 7.703125 C 4.59375 7.703125 3.925781 7.632812 3.375 7.5 C 2.820312 7.363281 2.390625 7.226562 2.078125 7.09375 L 3.328125 2.84375 C 4.296875 3.132812 5.109375 3.210938 5.765625 3.078125 C 6.429688 2.941406 6.957031 2.421875 7.34375 1.515625 L 7.703125 0.5625 L 0.625 -19.765625 L 6.390625 -19.765625 L 10.484375 -5.25 L 10.6875 -5.25 L 14.8125 -19.765625 L 20.625 -19.765625 L 12.90625 2.265625 C 12.34375 3.847656 11.445312 5.148438 10.21875 6.171875 C 9 7.191406 7.382812 7.703125 5.375 7.703125 Z M 5.375 7.703125 "/></g></g></g></svg>